<svg width="201.271" height="67.385" viewBox="0 0 201.271 67.385" xmlns="http://www.w3.org/2000/svg"><g id="svgGroup" stroke-linecap="round" fill-rule="evenodd" font-size="9pt" stroke="#ffffff" stroke-width="0.25mm" fill="#ffffff" style="stroke:#ffffff;stroke-width:0.25mm;fill:#ffffff"><path d="M 96.095 7.081 L 96.095 5.616 Q 96.095 4.004 95.949 1.221 L 142.238 1.221 L 113.82 54.444 L 131.544 54.444 Q 138.165 54.444 139.599 54.065 A 2.038 2.038 0 0 0 139.723 54.029 A 30.798 30.798 0 0 0 140.451 53.777 Q 141.173 53.516 141.668 53.287 A 8.851 8.851 0 0 0 141.701 53.272 L 141.701 66.895 A 404.618 404.618 0 0 1 140.697 66.8 Q 139.355 66.672 138.372 66.568 A 133.604 133.604 0 0 1 138.234 66.553 Q 136.867 66.407 135.353 66.309 Q 133.47 66.189 128.694 66.167 A 494.665 494.665 0 0 0 126.466 66.163 L 93.605 66.163 L 122.999 12.94 L 107.619 12.94 A 142.867 142.867 0 0 0 104.292 12.976 Q 99.102 13.097 96.675 13.627 A 7.646 7.646 0 0 0 95.509 13.965 A 16.797 16.797 0 0 0 95.818 12.244 Q 96.056 10.432 96.09 7.921 A 63.079 63.079 0 0 0 96.095 7.081 Z M 50.539 3.174 L 50.539 18.116 L 50.441 18.213 A 9.233 9.233 0 0 0 47.539 15.462 Q 44.838 13.769 40.375 12.901 A 39.147 39.147 0 0 0 38.917 12.647 Q 37.055 12.331 34.484 12.242 A 61.328 61.328 0 0 0 32.374 12.207 Q 28.419 12.207 24.611 13.697 A 17.387 17.387 0 0 0 20.759 15.766 A 14.796 14.796 0 0 0 18.361 17.92 A 17.323 17.323 0 0 0 14.809 24.378 Q 13.624 28.174 13.624 33.106 A 34.8 34.8 0 0 0 14.182 39.554 Q 15.454 46.291 19.63 50.196 A 16.865 16.865 0 0 0 28.114 54.448 A 24.205 24.205 0 0 0 32.814 54.883 A 35.612 35.612 0 0 0 39.028 54.372 Q 42.558 53.746 45.405 52.353 A 19.322 19.322 0 0 0 47.853 50.928 Q 49.953 49.512 51.417 47.413 L 51.564 47.51 L 51.564 61.182 A 25.561 25.561 0 0 1 41.684 66.154 Q 37.078 67.383 31.447 67.383 A 37.701 37.701 0 0 1 21.575 66.16 A 27.141 27.141 0 0 1 8.107 57.911 A 30.801 30.801 0 0 1 1.003 43.732 A 44.929 44.929 0 0 1 0.001 33.985 A 45.129 45.129 0 0 1 1.124 23.618 A 30.134 30.134 0 0 1 8.888 9.131 A 28.833 28.833 0 0 1 21.507 1.764 Q 25.966 0.441 31.305 0.111 A 59.187 59.187 0 0 1 34.962 0 A 44.076 44.076 0 0 1 41.938 0.524 Q 45.928 1.164 49.257 2.586 A 26.153 26.153 0 0 1 50.539 3.174 Z M 200.246 3.174 L 200.246 18.116 L 200.148 18.213 A 9.233 9.233 0 0 0 197.246 15.462 Q 194.545 13.769 190.082 12.901 A 39.147 39.147 0 0 0 188.624 12.647 Q 186.762 12.331 184.191 12.242 A 61.328 61.328 0 0 0 182.081 12.207 Q 178.126 12.207 174.318 13.697 A 17.387 17.387 0 0 0 170.466 15.766 A 14.796 14.796 0 0 0 168.068 17.92 A 17.323 17.323 0 0 0 164.516 24.378 Q 163.331 28.174 163.331 33.106 A 34.8 34.8 0 0 0 163.889 39.554 Q 165.161 46.291 169.337 50.196 A 16.865 16.865 0 0 0 177.821 54.448 A 24.205 24.205 0 0 0 182.521 54.883 A 35.612 35.612 0 0 0 188.735 54.372 Q 192.265 53.746 195.112 52.353 A 19.322 19.322 0 0 0 197.56 50.928 Q 199.66 49.512 201.124 47.413 L 201.271 47.51 L 201.271 61.182 A 25.561 25.561 0 0 1 191.391 66.154 Q 186.785 67.383 181.154 67.383 A 37.701 37.701 0 0 1 171.282 66.16 A 27.141 27.141 0 0 1 157.814 57.911 A 30.801 30.801 0 0 1 150.71 43.732 A 44.929 44.929 0 0 1 149.708 33.985 A 45.129 45.129 0 0 1 150.831 23.618 A 30.134 30.134 0 0 1 158.595 9.131 A 28.833 28.833 0 0 1 171.214 1.764 Q 175.673 0.441 181.012 0.111 A 59.187 59.187 0 0 1 184.669 0 A 44.076 44.076 0 0 1 191.645 0.524 Q 195.635 1.164 198.964 2.586 A 26.153 26.153 0 0 1 200.246 3.174 Z M 66.066 66.163 L 66.066 1.221 L 78.517 1.221 L 78.517 66.163 L 66.066 66.163 Z" vector-effect="non-scaling-stroke"/></g></svg>