<?xml version="1.0" encoding="iso-8859-1"?>
<!-- Generator: Adobe Illustrator 18.0.0, SVG Export Plug-In . SVG Version: 6.00 Build 0)  -->
<!DOCTYPE svg PUBLIC "-//W3C//DTD SVG 1.1//EN" "http://www.w3.org/Graphics/SVG/1.1/DTD/svg11.dtd">
<svg fill="#ffffff" version="1.1" id="Capa_1" xmlns="http://www.w3.org/2000/svg" xmlns:xlink="http://www.w3.org/1999/xlink" x="0px" y="0px"
	 viewBox="0 0 495.075 495.075" style="enable-background:new 0 0 495.075 495.075;" xml:space="preserve">
<g>
	<path d="M339.887,187.185H28.052C12.576,187.185,0,199.741,0,215.233v188.916C0,419.645,12.576,432.2,28.052,432.2h311.835
		c15.478,0,28.048-12.555,28.048-28.051V215.233C367.935,199.741,355.364,187.185,339.887,187.185z M183.97,349.79
		c-9.584,0-19.147-3.365-26.777-10.102L42.501,238.487c-5.142-4.539-5.623-12.375-1.1-17.516c4.558-5.141,12.375-5.639,17.515-1.099
		l114.697,101.202c5.913,5.205,14.799,5.205,20.714,0l114.68-101.202c5.15-4.54,12.973-4.042,17.516,1.099
		c4.539,5.141,4.036,12.977-1.1,17.516L210.742,339.688C203.116,346.424,193.533,349.79,183.97,349.79z M41.708,401.672
		c-1.536,1.26-3.409,1.877-5.252,1.877c-2.389,0-4.748-1.033-6.4-3.021c-2.892-3.539-2.39-8.744,1.15-11.65l77.933-64.023
		l12.586,11.105L41.708,401.672z M337.883,400.528c-1.651,1.988-4.011,3.021-6.4,3.021c-1.843,0-3.715-0.617-5.251-1.877
		l-80.002-65.713l12.57-11.086l77.935,64.004C340.273,391.784,340.775,396.989,337.883,400.528z"/>
	<path d="M351.583,126.783c-9.147,0-16.547,7.399-16.547,16.547c0,9.146,7.4,16.546,16.547,16.546
		c25.628,0,46.472,20.844,46.472,46.471c0,9.148,7.4,16.549,16.547,16.549c9.147,0,16.547-7.4,16.547-16.549
		C431.148,162.476,395.455,126.783,351.583,126.783z"/>
	<path d="M338.561,62.875c-0.035,0-0.035,0-0.035,0c-9.147,0-16.547,7.414-16.547,16.547c0,9.146,7.4,16.547,16.547,16.547
		c0,0,0,0,0.035,0c68.028,0,123.386,55.356,123.421,123.421c0,9.142,7.399,16.547,16.547,16.547l0,0
		c9.142,0,16.546-7.42,16.546-16.547C495.04,133.068,424.813,62.875,338.561,62.875z"/>
</g>
<g>
</g>
<g>
</g>
<g>
</g>
<g>
</g>
<g>
</g>
<g>
</g>
<g>
</g>
<g>
</g>
<g>
</g>
<g>
</g>
<g>
</g>
<g>
</g>
<g>
</g>
<g>
</g>
<g>
</g>
</svg>
